<svg xmlns="http://www.w3.org/2000/svg" width="633" height="397" viewBox="0 0 633 397"><defs><style>.cls-1,.cls-2{fill:#222}.cls-2,.cls-3{fill-rule:evenodd}.cls-3{fill:#d7ae14}</style></defs><g id="Artboard_1" data-name="Artboard 1"><g id="J"><path class="cls-1" d="M232 0h200v15H232zm95 47h15v350h-15z"/><path class="cls-2" d="M302.27 469.164L408.336 575.23l-10.606 10.606L291.664 479.77z" transform="translate(-72 -190)"/></g><g id="Brackets_-_Left" data-name="Brackets - Left"><path class="cls-3" d="M71.986 395.907l141.421-141.421 10.607 10.607L82.593 406.514z" transform="translate(-72 -190)"/><path id="Rectangle_4_copy" data-name="Rectangle 4 copy" class="cls-3" d="M82.593 370.986l141.421 141.421-10.607 10.607L71.986 381.593z" transform="translate(-72 -190)"/></g><g id="Brackets_-_Left_copy" data-name="Brackets - Left copy"><path class="cls-3" d="M705.014 381.856L563.593 523.014l-10.607-10.587 141.421-141.158z" transform="translate(-72 -190)"/><path id="Rectangle_4_copy-2" data-name="Rectangle 4 copy" class="cls-3" d="M694.407 406.731L552.986 265.573l10.607-10.587 141.421 141.158z" transform="translate(-72 -190)"/></g></g></svg>